<svg xmlns="http://www.w3.org/2000/svg" id="Layer_1" data-name="Layer 1" viewBox="0 0 500 231.67"><path d="M179.51,159.46c0,38.66-33.55,72.21-87.88,72.21-36.74,0-76.69-12.46-90.75-47.93a11.15,11.15,0,0,1,7-15L43.7,157.54c5.11-1.6,10.23.64,13.1,5.11,5.12,8,16.3,14.06,32,14.06,17.25,0,24.6-8,24.6-16.3,0-13.42-16.61-14.7-39-20.13-43.46-10.54-68.07-28.12-68.07-69C6.31,28.44,42.1,0,91.32,0c34.83,0,65.82,16,78.28,46.65,2.56,6.4-1.27,13.42-8,15.34l-35.47,8.63c-4.8,1-9.59-.64-12.15-4.47-3.83-6.08-10.86-10.55-22-10.55-13.1,0-22.36,5.43-22.36,15.66,0,12.78,19.49,14.38,36.74,19.17C161,105.77,179.51,124,179.51,159.46Z" transform="translate(0 0)"></path><path d="M355.89,227.84a15.71,15.71,0,0,1-15-11.51l-6.72-24H269l-6.71,24a15.65,15.65,0,0,1-14.7,11.51H203.15c-8.31,0-15-8.31-12.14-16.62L256.2,16.62A18.23,18.23,0,0,1,273.45,4.15h56.24a18.66,18.66,0,0,1,17.58,12.47l64.86,194.6c2.56,8-3.51,16.94-11.82,16.62Zm-89.15-38.35H336.4l7.35,26.21A12.37,12.37,0,0,0,355.89,225h44.42c6.39,0,11.19-6.71,9.27-12.78L344.39,17.58A15.15,15.15,0,0,0,329.69,7H273.45a15.44,15.44,0,0,0-14.7,10.55l-65.19,194.6c-2.23,6.71,3.52,12.78,9.59,12.78h44.42a13,13,0,0,0,12.14-9.26Zm57.52-43.78H278.88l22.69-82.12Zm-41.54-2.55h38l-19.17-69Z" transform="translate(0 0)"></path><path d="M435.45,199.4a32.28,32.28,0,1,1,32.27,32.27A32.19,32.19,0,0,1,435.45,199.4Zm2.88,0A29.56,29.56,0,1,0,467.72,170,29.32,29.32,0,0,0,438.33,199.4Z" transform="translate(0 0)"></path></svg>