<svg xmlns="http://www.w3.org/2000/svg" xmlns:xlink="http://www.w3.org/1999/xlink" id="Layer_1" x="0px" y="0px" viewBox="0 0 500 231.7" style="enable-background:new 0 0 500 231.7;" xml:space="preserve"><style type="text/css">	.st0{fill:#FFFFFF;}</style><g>	<path class="st0" d="M179.5,159.5c0,38.7-33.6,72.2-87.9,72.2c-36.7,0-76.7-12.5-90.8-47.9c-2.6-6.1,0.6-13.1,7-15l35.8-11.2  c5.1-1.6,10.2,0.6,13.1,5.1c5.1,8,16.3,14.1,32,14.1c17.3,0,24.6-8,24.6-16.3c0-13.4-16.6-14.7-39-20.1  c-43.5-10.5-68.1-28.1-68.1-69C6.3,28.4,42.1,0,91.3,0c34.8,0,65.8,16,78.3,46.7c2.6,6.4-1.3,13.4-8,15.3l-35.5,8.6  c-4.8,1-9.6-0.6-12.1-4.5c-3.8-6.1-10.9-10.5-22-10.5c-13.1,0-22.4,5.4-22.4,15.7c0,12.8,19.5,14.4,36.7,19.2  C161,105.8,179.5,124,179.5,159.5z"></path>	<path class="st0" d="M355.9,227.8c-7,0-13.1-4.8-15-11.5l-6.7-24H269l-6.7,24c-1.9,6.7-8,11.5-14.7,11.5h-44.4  c-8.3,0-15-8.3-12.1-16.6l65.2-194.6c2.6-7.3,9.3-12.5,17.3-12.5h56.2c8,0,15,5.1,17.6,12.5l64.9,194.6c2.6,8-3.5,16.9-11.8,16.6  H355.9z M266.7,189.5h69.7l7.4,26.2c1.3,5.4,6.4,9.3,12.1,9.3h44.4c6.4,0,11.2-6.7,9.3-12.8L344.4,17.6c-1.9-6.4-8-10.5-14.7-10.5  h-56.2c-6.7,0-12.5,4.2-14.7,10.5l-65.2,194.6c-2.2,6.7,3.5,12.8,9.6,12.8h44.4c5.4,0,10.5-3.8,12.1-9.3L266.7,189.5z M324.3,145.7  h-45.4l22.7-82.1L324.3,145.7z M282.7,143.2h38l-19.2-69L282.7,143.2z"></path>	<path class="st0" d="M435.5,199.4c0-17.9,14.4-32.3,32.3-32.3c17.9,0,32.3,14.4,32.3,32.3c0,17.9-14.4,32.3-32.3,32.3  C449.8,231.7,435.5,217.3,435.5,199.4z M438.3,199.4c0,16.3,13.1,29.4,29.4,29.4c16.3,0,29.7-13.1,29.7-29.4  c0-16.3-13.4-29.4-29.7-29.4C451.4,170,438.3,183.1,438.3,199.4z"></path></g></svg>